<?xml version="1.0" encoding="UTF-8" standalone="no"?>
<!DOCTYPE svg PUBLIC "-//W3C//DTD SVG 1.1//EN" "http://www.w3.org/Graphics/SVG/1.1/DTD/svg11.dtd">
<svg width="100%" height="100%" viewBox="0 0 15000 15000" version="1.1" xmlns="http://www.w3.org/2000/svg" xmlns:xlink="http://www.w3.org/1999/xlink" xml:space="preserve" xmlns:serif="http://www.serif.com/" style="fill-rule:evenodd;clip-rule:evenodd;stroke-linecap:round;stroke-linejoin:round;stroke-miterlimit:1.5;">
    <g transform="matrix(1.80361,0,0,1.80361,-5323.82,-6541.85)">
        <path d="M7110.07,11758.9C7110.07,11758.9 7110.07,11758.9 7110.06,11758.9C3824.95,10622.9 3610.42,6851.65 3659.36,5362.13C3671.3,5001.29 3916.63,4690.19 4264.74,4594.46C5232.01,4328.43 7106.63,3812.89 7110.06,3811.95C7110.07,3811.95 7110.07,3811.95 7110.07,3811.95C7110.07,3811.95 7110.08,3811.95 7110.08,3811.95L7110.08,3811.94C7110.08,3811.94 8987.26,4328.19 9955.41,4594.46C10303.5,4690.19 10548.9,5001.29 10560.8,5362.13C10609.7,6851.65 10395.2,10622.9 7110.08,11758.9L7110.08,11758.9C7110.08,11758.9 7110.07,11758.9 7110.07,11758.9Z" style="fill:white;stroke:black;stroke-width:0.55px;"/>
    </g>
    <g transform="matrix(1.80361,0,0,1.80361,-5667.58,-5476.18)">
        <path d="M7300.67,11168C7300.67,11168 7300.66,11168 7300.66,11168C4015.55,10032.1 3801.02,6260.8 3849.96,4771.28C3861.9,4410.44 4107.23,4099.34 4455.34,4003.61C5422.3,3737.66 7296.05,3222.36 7300.66,3221.1C7300.66,3221.09 7300.67,3221.09 7300.67,3221.1L7300.68,3221.09C7300.68,3221.09 9177.85,3737.33 10146,4003.61C10494.1,4099.34 10739.4,4410.44 10751.4,4771.28C10800.3,6260.8 10585.8,10032.1 7300.68,11168L7300.67,11168ZM5727.12,7567.48L6220.62,7524.34C6243.99,7722.1 6298.38,7884.35 6383.78,8011.1C6469.17,8137.85 6601.76,8240.32 6781.55,8318.53C6961.33,8396.74 7163.59,8435.84 7388.32,8435.84C7587.88,8435.84 7764.07,8406.17 7916.88,8346.85C8069.7,8287.52 8183.41,8206.17 8258.02,8102.79C8332.63,7999.41 8369.94,7886.6 8369.94,7764.35C8369.94,7640.3 8333.98,7531.98 8262.07,7439.39C8190.15,7346.8 8071.49,7269.04 7906.09,7206.12C7800.02,7164.77 7565.4,7100.5 7202.24,7013.3C6839.08,6926.11 6584.69,6843.86 6439.06,6766.55C6250.29,6667.67 6109.61,6544.97 6017.02,6398.44C5924.43,6251.92 5878.14,6087.86 5878.14,5906.28C5878.14,5706.72 5934.77,5520.2 6048.03,5346.71C6161.29,5173.22 6326.69,5041.52 6544.23,4951.63C6761.77,4861.74 7003.58,4816.79 7269.66,4816.79C7562.71,4816.79 7821.15,4863.99 8044.98,4958.37C8268.81,5052.76 8440.95,5191.64 8561.41,5375.02C8681.86,5558.4 8746.58,5766.05 8755.57,5997.97L8253.98,6035.73C8227.01,5785.83 8135.77,5597.06 7980.26,5469.41C7824.74,5341.76 7595.07,5277.94 7291.23,5277.94C6974.82,5277.94 6744.24,5335.92 6599.52,5451.88C6454.79,5567.84 6382.43,5707.62 6382.43,5871.23C6382.43,6013.25 6433.67,6130.11 6536.14,6221.8C6636.82,6313.49 6899.76,6407.43 7324.94,6503.61C7750.13,6599.8 8041.83,6683.85 8200.04,6755.76C8430.16,6861.83 8600.06,6996.22 8709.73,7158.93C8819.4,7321.63 8874.23,7509.05 8874.23,7721.2C8874.23,7931.55 8814,8129.76 8693.55,8315.83C8573.09,8501.91 8400.05,8646.64 8174.42,8750.01C7948.79,8853.39 7694.85,8905.07 7412.59,8905.07C7054.82,8905.07 6755.03,8852.94 6513.22,8748.66C6271.41,8644.39 6081.74,8487.53 5944.2,8278.08C5806.67,8068.63 5734.31,7831.77 5727.12,7567.48Z" style="fill:rgb(232,72,85);stroke:black;stroke-width:0.55px;"/>
    </g>
</svg>
