<svg width="690" height="482" viewBox="0 0 690 482" fill="none" xmlns="http://www.w3.org/2000/svg">
<path d="M280.166 76.4C304.191 69.8679 329.721 64 345 64C360.279 64 385.809 69.8679 409.834 76.4C434.413 83.0428 459.191 90.9036 473.761 95.6643C479.852 97.676 485.253 101.365 489.342 106.308C493.431 111.251 496.043 117.248 496.878 123.609C510.075 222.742 479.451 296.212 442.296 344.816C426.54 365.607 407.753 383.917 386.562 399.132C379.235 404.397 371.471 409.027 363.356 412.971C357.156 415.894 350.491 418.285 345 418.285C339.509 418.285 332.866 415.894 326.644 412.971C318.529 409.027 310.765 404.397 303.438 399.132C282.248 383.916 263.461 365.607 247.704 344.816C210.549 296.212 179.925 222.742 193.122 123.609C193.957 117.248 196.569 111.251 200.658 106.308C204.747 101.365 210.148 97.676 216.239 95.6643C237.39 88.7293 258.705 82.306 280.166 76.4Z" fill="black"/>
<path d="M342.094 239.734C318.938 233.078 302.062 224.922 291.469 215.266C280.969 205.516 275.719 193.516 275.719 179.266C275.719 163.141 282.141 149.828 294.984 139.328C307.922 128.734 324.703 123.438 345.328 123.438C359.391 123.438 371.906 126.156 382.875 131.594C393.938 137.031 402.469 144.531 408.469 154.094C414.562 163.656 417.609 174.109 417.609 185.453H390.469C390.469 173.078 386.531 163.375 378.656 156.344C370.781 149.219 359.672 145.656 345.328 145.656C332.016 145.656 321.609 148.609 314.109 154.516C306.703 160.328 303 168.438 303 178.844C303 187.188 306.516 194.266 313.547 200.078C320.672 205.797 332.719 211.047 349.688 215.828C366.75 220.609 380.062 225.906 389.625 231.719C399.281 237.438 406.406 244.141 411 251.828C415.688 259.516 418.031 268.562 418.031 278.969C418.031 295.562 411.562 308.875 398.625 318.906C385.688 328.844 368.391 333.812 346.734 333.812C332.672 333.812 319.547 331.141 307.359 325.797C295.172 320.359 285.75 312.953 279.094 303.578C272.531 294.203 269.25 283.562 269.25 271.656H296.391C296.391 284.031 300.938 293.828 310.031 301.047C319.219 308.172 331.453 311.734 346.734 311.734C360.984 311.734 371.906 308.828 379.5 303.016C387.094 297.203 390.891 289.281 390.891 279.25C390.891 269.219 387.375 261.484 380.344 256.047C373.312 250.516 360.562 245.078 342.094 239.734Z" fill="#F7F7F7"/>
</svg>
